<?xml version="1.0" standalone="no"?>
<!DOCTYPE svg PUBLIC "-//W3C//DTD SVG 20010904//EN"
 "http://www.w3.org/TR/2001/REC-SVG-20010904/DTD/svg10.dtd">
<svg version="1.0" xmlns="http://www.w3.org/2000/svg"
 width="364.000000pt" height="364.000000pt" viewBox="0 0 364.000000 364.000000"
 preserveAspectRatio="xMidYMid meet">
<metadata>
Created by potrace 1.14, written by Peter Selinger 2001-2017
</metadata>
<g transform="translate(0.000000,364.000000) scale(0.100000,-0.100000)"
fill="#000000" stroke="none">
<path d="M1610 3629 c-138 -17 -364 -74 -460 -116 -166 -72 -333 -167 -422
-237 -14 -11 -41 -32 -59 -46 -44 -33 -214 -203 -262 -262 -21 -26 -60 -80
-87 -120 -27 -40 -53 -77 -57 -83 -5 -5 -37 -66 -70 -135 -61 -123 -136 -328
-147 -404 -4 -21 -8 -41 -10 -45 -3 -4 -7 -27 -11 -51 -3 -25 -8 -56 -11 -70
-3 -14 -7 -111 -8 -215 -3 -202 9 -309 54 -485 26 -102 84 -262 112 -307 11
-18 17 -33 14 -33 -7 0 104 -191 121 -208 7 -7 13 -16 13 -20 0 -6 16 -28 60
-79 5 -7 10 -15 10 -18 0 -26 248 -267 354 -342 17 -12 36 -26 41 -31 19 -16
160 -98 230 -134 108 -55 296 -122 408 -144 10 -2 26 -5 35 -8 9 -3 35 -7 57
-10 22 -3 63 -9 90 -13 28 -5 133 -8 235 -7 214 0 346 21 540 84 138 45 354
147 433 204 255 184 391 320 528 528 32 48 69 111 84 140 14 29 30 60 35 68
34 58 112 284 135 389 3 11 7 31 10 44 3 12 7 40 10 62 3 22 9 65 14 95 14 84
6 392 -12 490 -33 178 -95 379 -145 475 -9 17 -16 32 -17 35 0 3 -10 21 -23
41 -12 20 -22 40 -22 44 0 13 -111 179 -168 250 -65 82 -227 242 -304 301
-157 121 -277 186 -523 285 -57 23 -205 59 -325 80 -81 13 -392 19 -480 8z"/>
</g>
</svg>
